<?xml version="1.0" encoding="utf-8"?>
<!-- Generator: Adobe Illustrator 25.4.1, SVG Export Plug-In . SVG Version: 6.00 Build 0)  -->
<svg version="1.1" id="Layer_1" xmlns="http://www.w3.org/2000/svg" xmlns:xlink="http://www.w3.org/1999/xlink" x="0px" y="0px"
	 viewBox="0 0 5000 3205.7" style="enable-background:new 0 0 5000 3205.7;" xml:space="preserve">
<style type="text/css">
	.st0{fill:#5D62AB;}
	.st1{fill:none;stroke:#B1BDE0;stroke-width:2;stroke-miterlimit:10;}
	.st2{fill:#F5E8DA;stroke:#F4E8DA;stroke-miterlimit:10;}
	.st3{fill:none;stroke:#B1BDE0;stroke-width:3;stroke-miterlimit:10;}
</style>
<rect class="st0" width="5000" height="3237.7"/>
<path class="st3" d="M4084.3,1466.8L4084.3,1466.8c-70.3-61-166.2-83.4-256.2-60l0,0c-226.9,58.9-422.8-167.9-331.5-383.8l0,0
	c36.2-85.7,28-183.8-22.1-262.3l0,0c-126.1-197.6,29.1-454,262.6-433.9l0,0c92.7,8,183.4-30.2,242.6-102.1l0,0
	c148.9-181,440.7-112.6,493.8,115.7v0c21.1,90.7,85.4,165.1,172,199.2l0,0c218.1,85.7,243.3,384.4,42.6,505.4l0,0
	c-79.7,48.1-130.7,132.2-136.3,225.2v0C4537.6,1504.1,4261.4,1620.3,4084.3,1466.8z"/>
<path class="st3" d="M1014.9,3333.7L1014.9,3333.7c-109.6-95-259-130-399.4-93.6l0,0c-353.6,91.8-659-261.8-516.7-598.3l0,0
	c56.5-133.6,43.6-286.5-34.4-408.8l0,0c-196.6-308,45.3-707.7,409.4-676.3h0c144.6,12.4,286-47.1,378.2-159.1l0,0
	c232.2-282.1,687-175.6,769.7,180.3l0,0c32.8,141.3,133.1,257.4,268.2,310.5l0,0c340,133.6,379.3,599.2,66.4,787.8l0,0
	c-124.3,74.9-203.7,206.2-212.4,351l0,0C1721.7,3391.8,1291,3572.9,1014.9,3333.7z"/>
<path class="st3" d="M1671.9,1974.1L1671.9,1974.1c-113.7-98.5-268.6-134.8-414.2-97l0,0c-366.7,95.2-683.3-271.5-535.8-620.4l0,0
	c58.6-138.6,45.2-297.1-35.7-423.9l0,0c-203.8-319.3,47-733.8,424.5-701.3l0,0c149.9,12.9,296.5-48.8,392.1-165l0,0
	c240.7-292.5,712.4-182,798.1,187l0,0c34.1,146.5,138,266.9,278,321.9l0,0c352.6,138.5,393.3,621.3,68.8,816.8l0,0
	c-128.8,77.7-211.2,213.8-220.3,363.9v0C2404.7,2034.4,1958.1,2222.2,1671.9,1974.1z"/>
<path class="st3" d="M3333.5,3220.5L3333.5,3220.5c-125-108.4-295.4-148.3-455.5-106.7l0,0c-403.3,104.7-751.5-298.6-589.3-682.3
	l0,0c64.4-152.4,49.7-326.7-39.3-466.2l0,0c-224.2-351.2,51.7-807,466.8-771.3h0c164.8,14.2,326.1-53.7,431.2-181.4l0,0
	c264.8-321.7,783.5-200.2,877.8,205.6l0,0c37.5,161.2,151.8,293.6,305.8,354.1l0,0c387.8,152.4,432.5,683.3,75.7,898.4l0,0
	c-141.7,85.4-232.3,235.1-242.2,400.2v0C4139.4,3286.8,3648.3,3493.4,3333.5,3220.5z"/>
<path class="st3" d="M363,1145L363,1145c-70.3-61-166.2-83.4-256.2-60l0,0C-120.1,1143.8-316,917-224.7,701.1l0,0
	c36.2-85.7,28-183.8-22.1-262.3l0,0C-372.9,241.3-217.7-15.1,15.8,5l0,0c92.7,8,183.4-30.2,242.6-102.1l0,0
	C407.3-278,699.1-209.7,752.2,18.6l0,0c21.1,90.7,85.4,165.1,172,199.2l0,0c218.1,85.7,243.3,384.4,42.6,505.4l0,0
	c-79.7,48.1-130.7,132.2-136.3,225.2l0,0C816.4,1182.3,540.1,1298.5,363,1145z"/>
<path class="st3" d="M3375.5,2889.3L3375.5,2889.3c-88.5-76.7-209.1-105-322.5-75.5l0,0c-285.5,74.1-532-211.4-417.2-483l0,0
	c45.6-107.9,35.2-231.3-27.8-330l0,0c-158.7-248.6,36.6-571.3,330.5-546h0c116.7,10,230.9-38,305.3-128.4l0,0
	c187.4-227.8,554.6-141.7,621.4,145.6l0,0c26.5,114.1,107.5,207.8,216.5,250.7l0,0c274.5,107.9,306.2,483.7,53.6,636l0,0
	c-100.3,60.5-164.4,166.4-171.5,283.3l0,0C3946,2936.2,3598.4,3082.4,3375.5,2889.3z"/>
<path class="st3" d="M1758.4,1529.6L1758.4,1529.6c-70.3-61-166.2-83.4-256.2-60l0,0c-226.9,58.9-422.8-167.9-331.5-383.8l0,0
	c36.2-85.7,28-183.8-22.1-262.3l0,0c-126.1-197.6,29.1-454,262.6-433.9l0,0c92.7,8,183.4-30.2,242.6-102.1l0,0
	c148.9-181,440.7-112.6,493.8,115.7v0c21.1,90.7,85.4,165.1,172,199.2l0,0c218.1,85.7,243.3,384.4,42.6,505.4l0,0
	c-79.7,48.1-130.7,132.2-136.3,225.2v0C2211.8,1566.9,1935.6,1683.1,1758.4,1529.6z"/>
<path class="st3" d="M4103,1188.6L4103,1188.6c-39.7-34.4-93.7-47-144.5-33.8l0,0c-127.9,33.2-238.4-94.7-186.9-216.4l0,0
	c20.4-48.3,15.8-103.6-12.5-147.9v0c-71.1-111.4,16.4-256,148.1-244.6h0c52.3,4.5,103.4-17,136.8-57.5l0,0
	c84-102,248.5-63.5,278.4,65.2v0c11.9,51.1,48.1,93.1,97,112.3l0,0c123,48.3,137.2,216.7,24,284.9v0
	c-44.9,27.1-73.7,74.6-76.8,126.9v0C4358.6,1209.6,4202.8,1275.2,4103,1188.6z"/>
<path class="st3" d="M326.6,861.2L326.6,861.2c-40.6-35.2-95.9-48.2-148-34.7l0,0c-131,34-244.1-97-191.4-221.6l0,0
	C8.1,555.4,3.4,498.8-25.5,453.5l0,0C-98.3,339.4-8.7,191.4,126.1,202.9l0,0c53.5,4.6,105.9-17.4,140.1-58.9l0,0
	c86-104.5,254.5-65,285.1,66.8l0,0c12.2,52.3,49.3,95.4,99.3,115l0,0c126,49.5,140.5,221.9,24.6,291.8l0,0
	c-46,27.7-75.4,76.4-78.7,130v0C588.4,882.7,428.9,949.8,326.6,861.2z"/>
<path class="st3" d="M2985.4,453L2985.4,453c-40.3-34.9-95.2-47.8-146.8-34.4l0,0c-130,33.7-242.2-96.2-189.9-219.9v0
	c20.8-49.1,16-105.3-12.7-150.2l0,0c-72.2-113.2,16.7-260.1,150.4-248.6l0,0c53.1,4.6,105.1-17.3,139-58.5l0,0
	c85.3-103.7,252.5-64.5,282.9,66.3l0,0c12.1,51.9,48.9,94.6,98.5,114.1l0,0c125,49.1,139.4,220.2,24.4,289.5l0,0
	c-45.7,27.5-74.9,75.8-78.1,129v0C3245.1,474.4,3086.8,541,2985.4,453z"/>
<path class="st3" d="M2144.8,3709.5L2144.8,3709.5c-40.3-34.9-95.2-47.8-146.8-34.4h0c-130,33.7-242.2-96.2-189.9-219.9l0,0
	c20.8-49.1,16-105.3-12.7-150.2l0,0c-72.2-113.2,16.7-260.1,150.4-248.6h0c53.1,4.6,105.1-17.3,139-58.5l0,0
	c85.3-103.7,252.5-64.5,282.9,66.3v0c12.1,51.9,48.9,94.6,98.5,114.1h0c125,49.1,139.4,220.2,24.4,289.5l0,0
	c-45.7,27.5-74.9,75.8-78.1,129v0C2404.5,3730.9,2246.3,3797.5,2144.8,3709.5z"/>
<path class="st3" d="M4712.1,3351.3L4712.1,3351.3c-40.3-34.9-95.2-47.8-146.8-34.4l0,0c-130,33.7-242.2-96.2-189.9-219.9v0
	c20.8-49.1,16-105.3-12.7-150.2v0c-72.2-113.2,16.7-260.1,150.4-248.6l0,0c53.1,4.6,105.1-17.3,139-58.5v0
	c85.3-103.7,252.5-64.5,282.9,66.3v0c12.1,51.9,48.9,94.6,98.5,114.1l0,0c125,49.1,139.4,220.2,24.4,289.5l0,0
	c-45.7,27.5-74.9,75.8-78.1,129v0C4971.8,3372.6,4813.6,3439.2,4712.1,3351.3z"/>
<path class="st3" d="M1036.9,3007.1L1036.9,3007.1c-73.6-63.8-173.9-87.3-268.2-62.8l0,0c-237.5,61.6-442.6-175.8-347-401.8l0,0
	c37.9-89.7,29.3-192.4-23.1-274.5l0,0c-132-206.8,30.4-475.2,274.9-454.2l0,0c97.1,8.4,192-31.6,254-106.8l0,0
	c155.9-189.5,461.4-117.9,516.9,121.1l0,0c22.1,94.9,89.4,172.9,180.1,208.5l0,0c228.4,89.7,254.7,402.4,44.6,529l0,0
	c-83.4,50.3-136.8,138.4-142.7,235.7l0,0C1511.5,3046.1,1222.3,3167.8,1036.9,3007.1z"/>
</svg>
