<?xml version="1.0" encoding="utf-8"?>
<!-- Generator: Adobe Illustrator 25.4.1, SVG Export Plug-In . SVG Version: 6.00 Build 0)  -->
<svg version="1.1" id="Layer_1" xmlns="http://www.w3.org/2000/svg" xmlns:xlink="http://www.w3.org/1999/xlink" x="0px" y="0px"
	 viewBox="0 0 513.2 377.7" style="enable-background:new 0 0 513.2 377.7;" xml:space="preserve">

<g>
	<path d="M460.6,3H52.7C23.6,3,0,26.6,0,55.7V325c0,29,23.6,52.7,52.7,52.7h407.9c29,0,52.7-23.6,52.7-52.7V55.7
		C513.2,26.6,489.6,3,460.6,3L460.6,3z M341.4,161.9L487.4,48.7c0.6,2.2,0.9,4.6,0.9,7v254.6L341.4,161.9z M460.6,27.9
		c3.6,0,7.1,0.7,10.3,2L271.4,184.6c-10.7,8.3-25,8.3-35.6,0L38.6,31.8c4.1-2.4,8.9-3.8,14-3.8L460.6,27.9z M25.1,52.8l140.7,109.1
		L24.9,304.1V55.7C24.9,54.7,25,53.8,25.1,52.8L25.1,52.8z M460.6,352.7H52.7c-11,0-20.6-6.5-25-15.9l158-159.6l34.8,27
		c9.9,7.7,21.5,11.5,33.1,11.5c11.6,0,23.2-3.8,33.1-11.5l34.8-27l161.9,163.4C478.4,348,470,352.7,460.6,352.7L460.6,352.7z"/>
</g>
</svg>
