<?xml version="1.0" encoding="utf-8"?>
<!-- Generator: Adobe Illustrator 25.4.1, SVG Export Plug-In . SVG Version: 6.00 Build 0)  -->
<svg version="1.1" id="Layer_1" xmlns="http://www.w3.org/2000/svg" xmlns:xlink="http://www.w3.org/1999/xlink" x="0px" y="0px"
	 viewBox="0 0 146 252" style="enable-background:new 0 0 146 252;" xml:space="preserve">
<style type="text/css">
	.st0{fill:#F5E8DA;stroke:#F4E8DA;stroke-miterlimit:10;}
	.st1{opacity:0.1;fill:none;stroke:#EE4323;stroke-width:0.75;stroke-miterlimit:10;}
	.st2{fill:#EAD453;}
	.st3{fill:#EFAECE;}
	.st4{fill:#5D62AB;}
	.st5{opacity:0.73;fill:#EAD453;}
	.st6{fill:#B1BDE0;}
	.st7{opacity:0.59;fill:#B1BDE0;}
	.st8{fill:none;stroke:#F16225;stroke-width:3;stroke-linecap:round;stroke-miterlimit:10;}
	.st9{opacity:0.43;fill:#F16225;}
	.st10{fill:none;stroke:#EAD453;stroke-width:3;stroke-linecap:round;stroke-miterlimit:10;}
	.st11{fill:none;stroke:#F16225;stroke-linecap:round;stroke-miterlimit:10;}
	.st12{fill:none;stroke:#5D62AB;stroke-width:3;stroke-linecap:round;stroke-miterlimit:10;}
	.st13{fill:#F6BD89;}
	.st14{opacity:0.62;fill:none;stroke:#EFAECE;stroke-width:3;stroke-linecap:round;stroke-miterlimit:10;}
	.st15{opacity:0.62;fill:#EFAECE;}
	.st16{fill:none;stroke:#5D62AB;stroke-linecap:round;stroke-miterlimit:10;}
</style>
<rect x="0.7" class="st0" width="144" height="252"/>
<line class="st1" x1="144.7" y1="247.7" x2="0.7" y2="247.7"/>
<path class="st2" d="M144.8,69.8c-5.3,1.9-9.9-1.9-15.1,0.3c-3.5,1.5-5.5,5.3-8.9,7.1c-4.4,2.4-10.3,1-14-2.3
	c-3.7-3.3-5.6-8-6.8-12.8c-1.5-5.9-2-12.6,1.5-17.7c1.5-2.2,3.6-4,5.2-6.1c3.3-4.1,4.9-9.2,7.8-13.6c7.2-10.9,20.9-15.9,30.6-24.8
	c-0.5,1.2-0.3,3.6,0.3,4.7c-10.8,8-20.6,17.1-29.2,27.3c-7.5,8.9-14.4,20.2-11.2,31.2c0.9,3.1,2.8,6.2,5.7,7.9
	c2.9,1.7,7,1.8,9.5-0.4c2.4-2,3.2-5.6,6-7.1c5.5-2.9,13.7,4.2,18.4,0.2C145.1,65.7,144.6,67.9,144.8,69.8z"/>
<line class="st1" x1="5.1" y1="0.5" x2="4.9" y2="252.5"/>
<line class="st1" x1="11.9" y1="0.5" x2="11.9" y2="81.8"/>
<g>
	<g>
		<path class="st3" d="M61,68.7l3.4-1.7l0,0c-0.2,0.1-0.2,0.5,0.1,1.2c-0.2,1.2-0.7,2.7-2.1,3.4c-1.6,0.8-3.6,0.1-4.4-1.5
			c-0.8-1.6-0.2-3.6,1.5-4.4c1-0.5,2.1-0.4,3,0l-0.4,2l0,0c-0.2-0.3-2.6-1.2-3.7-0.6c-0.5,0.2-0.6,0.8-0.4,1.2
			c0.7,1.3,4.2,2.7,5.6,2.1C62.4,68.1,62.4,68.1,61,68.7L61,68.7z"/>
		<path class="st3" d="M71.5,67.3c0.3,0.6,0.6,1.2,1.5,1l0,0l-2.8,0.5L69,66.8c-0.4-0.7-0.6-0.7-1.4-0.6l0.4,2.1
			c0,0.1,0.2,1,1.1,0.8l0,0l-3.7,0.7l0,0c0.9-0.2,0.7-1.1,0.7-1.2l-0.8-4.2c0-0.1-0.2-1-1.1-0.8l0,0l5.1-1c0.7-0.1,1.6,0.2,1.8,1.3
			c0.2,1.1-0.5,1.7-1.2,1.8l-0.7,0.1c0.6,0,1.5,0,1.8,0.7L71.5,67.3z M68.3,66c0.8-0.2,1.1-0.7,0.9-1.7c-0.2-1.1-0.7-1.4-1.5-1.2
			L67,63.2l0.6,3L68.3,66z"/>
		<path class="st3" d="M72.8,68.4L72.8,68.4c0.8,0.1,1.5-0.6,1.9-1.5l1.8-3.7c-0.1-0.5-0.5-0.8-1.1-0.9l0,0l2.9,0.3l1.4,5.5
			c0.2,0.6,0.6,1,1.2,1.1l0,0L77,68.9l0,0c0.9,0.1,0.8-0.5,0.7-0.9L77.4,67l-2.6-0.3l-0.1,0.2c-0.5,0.9-0.3,1.6,0.8,1.7l0,0
			L72.8,68.4z M74.9,66.7l2.5,0.3l-0.8-3.5l0-0.1L74.9,66.7z"/>
		<path class="st3" d="M87.8,65.5c0.6,0.3,1.2,1,0.8,2c-0.4,1-1.4,1.1-2,0.9l-2.2-0.9l-0.8,2c0,0-0.4,0.9,0.5,1.3l0,0l-3.5-1.4l0,0
			c0.8,0.3,1.2-0.5,1.2-0.6l1.6-3.9c0-0.1,0.3-0.9-0.5-1.3l0,0L87.8,65.5z M85.1,67.7c0.8,0.3,1.3,0.1,1.7-0.9
			c0.4-1,0.2-1.5-0.6-1.9l-0.7-0.3l-1.2,2.8L85.1,67.7z"/>
		<path class="st3" d="M97.4,72.2c-0.7-0.6-1.3,0.1-1.4,0.2l-2.7,3.3c-0.1,0.1-0.6,0.8,0.1,1.4l0,0l-2.9-2.4l0,0
			c0.7,0.6,1.3-0.1,1.4-0.2l1.3-1.6l-2.2-1.8l-1.3,1.6c0,0-0.6,0.8,0.1,1.4l0,0l-2.9-2.4l0,0c0.7,0.6,1.3-0.1,1.4-0.2l2.7-3.3
			c0.1-0.1,0.6-0.8-0.1-1.4l0,0l2.9,2.4l0,0c-0.7-0.6-1.3,0.1-1.4,0.2L91,71l2.2,1.8l1.3-1.6c0,0,0.6-0.8-0.1-1.4l0,0L97.4,72.2
			L97.4,72.2z"/>
		<path class="st3" d="M95.6,78.8c0,0-0.8,0.6-0.2,1.3l0,0l-2.2-3l0,0c0.5,0.7,1.3,0.2,1.4,0.2l3.4-2.6c0.1-0.1,0.8-0.6,0.2-1.3l0,0
			l2.2,3l0,0c-0.5-0.7-1.3-0.2-1.4-0.2L95.6,78.8z"/>
		<path class="st3" d="M99,85.1c-1-0.2-1.8-0.9-2.2-1.7c-0.8-1.6-0.2-3.6,1.5-4.4c1.6-0.8,3.6-0.2,4.4,1.5c0.5,1,0.5,2.1,0,3l-2-0.3
			l0,0c0.3-0.2,1.2-2.6,0.6-3.7c-0.3-0.5-0.8-0.6-1.2-0.4c-1.3,0.7-2.5,4.2-1.8,5.6C98.5,84.9,98.8,85,99,85.1L99,85.1z"/>
		<path class="st3" d="M108.7,88.9c1.1,1,1.1,2.5-0.2,4c-1.3,1.5-2.8,1.7-4,0.7l-3.6-3.1l0,0c0.7,0.6,1.3,0,1.3-0.1l2.8-3.2
			c0,0,0.6-0.8-0.1-1.4l0,0L108.7,88.9z M107.4,87.9l-0.2-0.2l-4.1,4.7l0.2,0.2c1.1,1,2.5,0.6,3.7-0.8
			C108.3,90.4,108.6,88.9,107.4,87.9z"/>
		<path class="st3" d="M108.1,96.3L108.1,96.3c0.8,0.3,1.2-0.5,1.2-0.6l1.6-4c0-0.1,0.3-0.9-0.5-1.3l0,0l5.9,2.3l-1,2.5l0,0
			c0.7-1.8-0.7-3.1-1.4-3.4l-0.9-0.4l-1.1,2.8l0.3,0.1c0.2,0.1,1.5,0.5,2-0.8l0,0l-1.1,2.7l0,0c0.5-1.3-0.8-1.8-0.9-1.9l-0.3-0.1
			l-1.1,2.8l0.9,0.4c0.7,0.3,2.7,0.3,3.3-1.5l0,0l-1,2.5L108.1,96.3z"/>
		<path class="st3" d="M122.2,94L122.2,94c0,0-0.1,1.1-0.8,0.9c-0.8-0.3-0.8-1.4-1.6-1.6c-0.3-0.1-0.7,0-0.9,0.6
			c-0.2,0.5,0.1,0.8,0.7,1.3l0.8,0.8c0.7,0.7,1.2,1.3,1,2.1c-0.5,1.7-2.4,1.7-3.4,1.4c-1-0.3-2.2-0.9-2.2-0.9l0.7-2.2l0,0
			c-0.5,1.6,0.5,2.7,1.4,3c0.7,0.2,1.4,0,1.7-0.7c0.2-0.6-0.1-0.9-0.5-1.3l-0.8-0.8c-0.7-0.7-1.4-1.3-1.1-2.2
			c0.2-0.6,0.9-1.7,3.1-1.1C121,93.6,122,94.4,122.2,94z"/>
		<path class="st3" d="M123.7,100.7c0,0-0.4,0.9,0.4,1.3l0,0l-3.3-1.7l0,0c0.8,0.4,1.2-0.4,1.3-0.5l2-3.8c0-0.1,0.4-0.9-0.4-1.3l0,0
			l3.3,1.7l0,0c-0.8-0.4-1.2,0.4-1.3,0.5L123.7,100.7z"/>
		<path class="st3" d="M128.7,101.7l3,2.5l0,0c-0.2-0.2-0.5,0-1,0.6c-1.2,0.3-2.8,0.4-4-0.6c-1.4-1.2-1.6-3.3-0.4-4.7
			c1.2-1.4,3.2-1.6,4.7-0.4c0.8,0.7,1.3,1.7,1.2,2.8l-2,0.5l0,0c0.2-0.3,0.1-2.8-0.9-3.7c-0.4-0.4-0.9-0.2-1.2,0.1
			c-0.9,1.1-0.7,4.9,0.3,6C129.9,102.8,129.9,102.8,128.7,101.7L128.7,101.7z"/>
		<path class="st3" d="M137.5,106.9l1.8,2.7l0,0c-0.7-1.1-1.8-0.7-2.2-0.4l-2.5,1.7l-1.3,1l1.3-7.4l0-0.2l-3.1,2.1
			c-0.3,0.2-1.2,1.1-0.5,2.2l0,0l-1.8-2.7l0,0c0.8,1.2,1.9,0.6,2.2,0.4l3.2-2.2c0-0.5,0.1-1.3-0.3-1.9l0,0l2.1,3l-0.9,5l1.6-1.1
			C137.4,108.8,138.2,108,137.5,106.9L137.5,106.9z"/>
		<path class="st3" d="M133.8,112.8L133.8,112.8c0.3,0.9,1.1,0.6,1.2,0.6l4.1-1.3c0.1,0,0.9-0.3,0.7-1.2l0,0l1.9,6.1l-2.5,0.8l0,0
			c1.8-0.6,1.9-2.5,1.7-3.2l-0.3-0.9l-2.9,0.9l0.1,0.3c0.1,0.2,0.5,1.5,1.8,1.1l0,0l-2.8,0.9l0,0c1.3-0.4,1-1.7,0.9-1.9l-0.1-0.3
			l-2.9,0.9l0.3,0.9c0.2,0.7,1.5,2.2,3.2,1.7l0,0l-2.5,0.8L133.8,112.8z"/>
		<path class="st3" d="M137.4,125.4c-0.6,0.3-1.3,0.5-1.2,1.3l0,0l-0.1-2.8l2.3-1c0.7-0.3,0.8-0.5,0.8-1.3l-2.1,0.1
			c-0.1,0-1,0.1-0.9,1l0,0l-0.2-3.7l0,0c0,0.9,1,0.9,1,0.9l4.3-0.2c0.1,0,1-0.1,1-1l0,0l0.2,5.2c0,0.7-0.4,1.5-1.5,1.6
			c-1.1,0-1.6-0.8-1.6-1.4l0-0.7c0,0.6-0.2,1.4-0.9,1.7L137.4,125.4z M139.2,122.4c0,0.8,0.5,1.2,1.6,1.2c1.1-0.1,1.5-0.5,1.4-1.3
			l0-0.7l-3,0.1L139.2,122.4z"/>
		<path class="st3" d="M134.4,135.4c0,0-0.9-0.4-1.3,0.4l0,0l1.5-3.4l0,0c-0.4,0.8,0.4,1.2,0.5,1.3l3.9,1.8c0.1,0,0.9,0.4,1.3-0.4
			l0,0l-1.5,3.4l0,0c0.4-0.8-0.4-1.2-0.5-1.3L134.4,135.4z"/>
		<path class="st3" d="M131.6,138.1l-0.6,0.8c-0.3,0.5-0.8,2.6,0.9,3.9l0,0l-2.5-1.9l3.8-5.1l0,0c-0.5,0.7,0.2,1.3,0.2,1.3l3.5,2.5
			c0.1,0.1,0.8,0.6,1.4-0.2l0,0l-2.2,3l0,0c0.5-0.7-0.2-1.3-0.2-1.3L131.6,138.1z"/>
		<path class="st3" d="M127.2,143l-0.7,0.7c-0.4,0.4-1.2,2.4,0.3,4l0,0l-2.2-2.2l4.5-4.5l0,0c-0.6,0.6,0,1.3,0,1.4l3,3
			c0.1,0.1,0.7,0.7,1.4,0l0,0l-2.7,2.6l0,0c0.6-0.6,0-1.3,0-1.4L127.2,143z"/>
		<path class="st3" d="M124.6,154.7c0.4,0.2,1.5,0.5,2.1-0.7l0,0l-1.5,2.9l0,0C125.8,155.7,124.9,155,124.6,154.7l-2.6-1.2
			c-1.3-0.7-1.3-2-0.6-3.3c0.6-1.2,1.7-2.5,3.5-1.6l2.8,1.4c0.1,0,0.9,0.4,1.3-0.4l0,0l-1.7,3.3l0,0c0.4-0.8-0.4-1.2-0.5-1.3
			l-2.9-1.5c-1.3-0.7-2.1-0.3-2.6,0.7c-0.3,0.6-0.5,1.9,0.8,2.5L124.6,154.7z"/>
		<path class="st3" d="M125.1,161.2L125.1,161.2c0,0-1.2,0-1-0.7c0.1-0.9,1.2-0.9,1.4-1.8c0-0.3-0.1-0.7-0.8-0.8
			c-0.5-0.1-0.8,0.2-1.2,0.8l-0.7,0.9c-0.6,0.8-1.1,1.4-2,1.3c-1.8-0.3-2-2.1-1.8-3.1c0.2-1,0.6-2.3,0.6-2.3l2.2,0.4l0,0
			c-1.7-0.3-2.6,0.8-2.8,1.8c-0.1,0.7,0.2,1.4,0.9,1.5c0.6,0.1,0.9-0.2,1.3-0.7l0.7-0.9c0.6-0.8,1.1-1.5,2.1-1.4
			c0.6,0.1,1.8,0.7,1.5,2.9C125.3,159.9,124.7,161,125.1,161.2z"/>
		<path class="st3" d="M125.1,161.8l0.4,6.8l-2.7,0.2l0,0c1.5-0.1,2.5-1.4,2.4-2.6l-5.2,0.3c-0.1,0-1,0.1-0.9,1l0,0l-0.2-3.7l0,0
			c0.1,0.9,0.9,0.9,1,0.9l5.2-0.3c-0.1-1.3-1.3-2.4-2.7-2.3l0,0L125.1,161.8z"/>
		<path class="st3" d="M119.4,175.8c-0.7,0.1-1.3,0.2-1.5,1l0,0l0.5-2.8l2.5-0.4c0.8-0.1,0.9-0.3,1.1-1.1l-2.1-0.4
			c-0.1,0-1-0.2-1.2,0.7l0,0l0.7-3.7l0,0c-0.2,0.9,0.7,1.1,0.8,1.1l4.2,0.8c0.1,0,1,0.2,1.2-0.7l0,0l-1,5.1
			c-0.1,0.7-0.8,1.4-1.8,1.2s-1.4-1.1-1.3-1.8l0.1-0.7c-0.2,0.6-0.5,1.4-1.3,1.5L119.4,175.8z M121.9,173.3
			c-0.2,0.8,0.2,1.3,1.2,1.5c1.1,0.2,1.6-0.1,1.7-0.9l0.1-0.7l-3-0.6L121.9,173.3z"/>
		<path class="st3" d="M118,176.6L118,176.6c-0.4,0.7,0,1.6,0.6,2.3l2.7,3.1c0.5,0.1,1-0.2,1.3-0.7l0,0l-1.4,2.6l-5.6-0.9
			c-0.7-0.1-1.1,0.1-1.4,0.7l0,0l1.9-3.4l0,0c-0.4,0.8,0.2,0.9,0.6,1l0.9,0.1l1.2-2.2l-0.1-0.2c-0.6-0.8-1.4-0.9-1.9,0.1l0,0
			L118,176.6z M118.7,179.2l-1.2,2.2l3.5,0.6l0.1,0L118.7,179.2z"/>
		<path class="st3" d="M119.3,186.8l-4.7,5l-1.9-1.8l0,0c1.1,1,2.7,0.9,3.6,0l-3.8-3.6c0,0-0.7-0.7-1.4,0l0,0l2.6-2.7l0,0
			c-0.6,0.7,0,1.3,0.1,1.3l3.8,3.6c0.9-0.9,0.9-2.6-0.2-3.6l0,0L119.3,186.8z"/>
		<path class="st3" d="M105.8,193.9c-1-1.6-0.5-3.6,1.1-4.5c1.6-1,3.6-0.5,4.5,1.1c1,1.6,0.5,3.6-1.1,4.5
			C108.8,195.9,106.7,195.4,105.8,193.9z M105.9,190.9c-0.5,0.3-0.5,0.8-0.3,1.2c0.8,1.3,4.4,2.2,5.7,1.4c0.5-0.3,0.5-0.8,0.3-1.2
			C110.8,190.9,107.2,190.1,105.9,190.9z"/>
		<path class="st3" d="M98.3,194.3c-0.4-0.5-0.7-1.1-1.6-0.9l0,0l2.7-0.8l1.5,2c0.5,0.6,0.6,0.7,1.4,0.5l-0.6-2.1
			c0-0.1-0.3-0.9-1.2-0.7l0,0l3.6-1l0,0c-0.9,0.3-0.6,1.2-0.6,1.2l1.2,4.1c0,0.1,0.3,1,1.2,0.7l0,0l-5,1.4c-0.6,0.2-1.6-0.1-1.9-1.1
			c-0.3-1,0.4-1.7,1-1.9l0.7-0.2c-0.6,0.1-1.5,0.1-1.9-0.5L98.3,194.3z M101.6,195.3c-0.8,0.2-1.1,0.7-0.8,1.8
			c0.3,1,0.8,1.3,1.6,1.1l0.7-0.2l-0.8-2.9L101.6,195.3z"/>
		<path class="st3" d="M89.7,196l-3.8-0.6l0,0c0.3,0,0.5-0.3,0.6-1c0.9-0.9,2.1-1.8,3.7-1.5c1.8,0.3,3,2,2.8,3.8
			c-0.3,1.8-2,3-3.8,2.8c-1.1-0.2-2-0.9-2.4-1.8l1.5-1.4l0,0c-0.1,0.4,1.4,2.5,2.7,2.7c0.6,0.1,0.9-0.3,1-0.7c0.2-1.5-1.9-4.6-3.4-5
			C88.1,195.7,88.2,195.7,89.7,196L89.7,196z"/>
		<path class="st3" d="M80.4,190.8c0.1-0.7,0.3-1.3-0.5-1.7l0,0l2.5,1.4l-0.4,2.4c-0.1,0.8,0,0.9,0.7,1.3l1-1.9
			c0-0.1,0.5-0.9-0.3-1.3l0,0l3.3,1.8l0,0c-0.8-0.4-1.3,0.4-1.3,0.4l-2.1,3.7c0,0-0.5,0.9,0.3,1.3l0,0l-4.5-2.5
			c-0.6-0.3-1.1-1.2-0.6-2.1c0.5-0.9,1.5-1,2.1-0.6l0.6,0.3c-0.5-0.4-1.1-0.9-1-1.7L80.4,190.8z M82,193.9c-0.7-0.4-1.3-0.2-1.8,0.7
			c-0.5,0.9-0.4,1.5,0.4,1.9l0.6,0.3l1.5-2.6L82,193.9z"/>
		<path class="st3" d="M78.2,187.9L78.2,187.9c-0.8-0.2-1.6,0.4-2.1,1.2l-2.3,3.4c0,0.5,0.4,0.9,1,1.1l0,0l-2.8-0.7l-0.5-5.7
			c-0.1-0.7-0.4-1.1-1-1.2l0,0l3.7,1l0,0c-0.9-0.2-0.8,0.4-0.8,0.8l0.1,0.9l2.5,0.6l0.1-0.2c0.6-0.8,0.5-1.6-0.5-1.8l0,0L78.2,187.9
			z M75.9,189.3l-2.4-0.6l0.3,3.6l0,0.1L75.9,189.3z"/>
		<path class="st3" d="M64.1,192.7c-0.7,0.1-1.6-0.3-1.7-1.4c-0.1-1.1,0.7-1.7,1.3-1.7l2.3-0.3l-0.2-2.1c0-0.1-0.1-1-1-0.9l0,0
			l3.7-0.4l0,0c-0.9,0.1-0.8,1-0.8,1.1l0.5,4.2c0,0.1,0.1,1,1,0.9l0,0L64.1,192.7z M65.4,189.4c-0.8,0.1-1.2,0.6-1.1,1.6
			c0.1,1.1,0.6,1.4,1.4,1.4l0.7-0.1l-0.3-3L65.4,189.4z"/>
		<path class="st3" d="M55,196.1c0.8-0.3,0.5-1.2,0.5-1.3l-1.6-4c0-0.1-0.4-0.9-1.2-0.6l0,0l3.5-1.4l0,0c-0.8,0.3-0.5,1.2-0.5,1.3
			l0.8,2l2.7-1.1l-0.8-2c0-0.1-0.4-0.9-1.2-0.6l0,0l3.5-1.4l0,0c-0.8,0.3-0.5,1.2-0.5,1.3l1.6,4c0,0.1,0.4,0.9,1.2,0.6l0,0l-3.5,1.4
			l0,0c0.8-0.3,0.5-1.2,0.5-1.3l-0.8-2l-2.7,1.1l0.8,2c0,0.1,0.4,0.9,1.2,0.6l0,0L55,196.1L55,196.1z"/>
		<path class="st3" d="M50.1,191.6c0-0.1-0.2-1-1.1-0.8l0,0l3.7-0.7l0,0c-0.9,0.2-0.8,1-0.8,1.1l0.7,4.2c0,0.1,0.2,1,1.1,0.8l0,0
			l-3.7,0.7l0,0c0.9-0.2,0.8-1,0.7-1.1L50.1,191.6z"/>
		<path class="st3" d="M43,191.8c0.7-0.8,1.7-1.2,2.6-1.1c1.8,0,3.3,1.6,3.2,3.4c0,1.8-1.6,3.3-3.4,3.2c-1.1,0-2.1-0.6-2.6-1.4
			l1.3-1.6l0,0c0,0.4,1.7,2.3,3,2.3c0.6,0,0.9-0.4,0.9-0.9c0-1.5-2.5-4.2-4.1-4.2C43.4,191.4,43.2,191.6,43,191.8L43,191.8z"/>
		<path class="st3" d="M32.6,193.8c-1.3-0.6-1.8-2.1-1-3.9c0.8-1.8,2.3-2.4,3.6-1.8l4.3,2l0,0c-0.8-0.4-1.2,0.4-1.3,0.5l-1.8,3.9
			c0,0.1-0.4,0.9,0.4,1.3l0,0L32.6,193.8z M34.1,194.4l0.3,0.1l2.6-5.6l-0.3-0.1c-1.4-0.6-2.6,0.1-3.3,1.8
			C32.6,192.3,32.7,193.8,34.1,194.4z"/>
		<path class="st3" d="M32.9,187L32.9,187c-0.7-0.6-1.3,0.1-1.4,0.2l-2.8,3.3c0,0-0.6,0.8,0.1,1.4l0,0l-4.9-4.1l1.7-2l0,0
			c-1.2,1.4-0.3,3.1,0.3,3.6l0.7,0.6l2-2.3l-0.3-0.2c-0.1-0.1-1.2-1-2.1,0.1l0,0l1.9-2.2l0,0c-0.9,1.1,0.1,2,0.3,2.1l0.3,0.2l2-2.3
			l-0.7-0.6c-0.6-0.5-2.4-1.1-3.6,0.3l0,0l1.7-2L32.9,187z"/>
		<path class="st3" d="M19.5,182.1L19.5,182.1c0,0,0.8-0.8,1.2-0.2c0.5,0.7-0.2,1.5,0.3,2.2c0.2,0.2,0.6,0.5,1.1,0
			c0.4-0.3,0.4-0.7,0.3-1.5l-0.2-1.1c-0.2-1-0.2-1.7,0.5-2.3c1.5-1.1,2.9,0.1,3.5,0.9c0.6,0.8,1.2,2.1,1.2,2.1l-1.9,1.3l0,0
			c1.4-1,1.3-2.4,0.7-3.2c-0.4-0.6-1.1-0.9-1.7-0.4c-0.5,0.4-0.5,0.8-0.4,1.4l0.2,1.1c0.2,0.9,0.3,1.9-0.5,2.4
			c-0.5,0.4-1.8,0.8-3.1-1C20.2,183.1,19.8,181.9,19.5,182.1z"/>
		<path class="st3" d="M22.3,175.8c0,0,0.9-0.4,0.5-1.3l0,0l1.6,3.4l0,0c-0.4-0.8-1.2-0.5-1.3-0.4l-3.9,1.8c-0.1,0-0.9,0.5-0.5,1.3
			l0,0l-1.6-3.4l0,0c0.4,0.8,1.2,0.5,1.3,0.4L22.3,175.8z"/>
		<path class="st3" d="M18.9,172l-0.9-3.7l0,0c0.1,0.3,0.4,0.3,1.2,0.2c1.1,0.5,2.5,1.3,2.8,2.9c0.4,1.8-0.7,3.6-2.5,4
			c-1.8,0.4-3.5-0.7-4-2.5c-0.2-1.1,0.1-2.1,0.7-2.9l1.9,0.8l0,0c-0.4,0.1-1.8,2.2-1.5,3.5c0.1,0.5,0.6,0.8,1.1,0.7
			c1.4-0.3,3.6-3.5,3.4-5C18.7,170.4,18.7,170.5,18.9,172L18.9,172z"/>
		<path class="st3" d="M15.1,162.5l0.2-3.2l0,0c-0.1,1.3,1.1,1.6,1.5,1.7l3,0.2l1.7,0l-5.6,5.1l-0.2,0.2l3.8,0.2
			c0.4,0,1.6-0.1,1.7-1.5l0,0l-0.2,3.2l0,0c0.1-1.4-1.2-1.6-1.5-1.7l-3.8-0.2c-0.3,0.3-0.8,1-0.9,1.7l0,0l0.2-3.7l3.7-3.4l-2-0.1
			C16.3,161,15.2,161.2,15.1,162.5L15.1,162.5z"/>
		<path class="st3" d="M22.2,159.5L22.2,159.5c0-0.9-0.8-1-0.9-1l-4.3-0.3c-0.1,0-1-0.1-1.1,0.9l0,0l0.5-6.4l2.7,0.2l0,0
			c-1.9-0.1-2.7,1.6-2.8,2.4l-0.1,1l3,0.2l0-0.3c0-0.2,0-1.6-1.3-1.7l0,0l2.9,0.2l0,0c-1.4-0.1-1.5,1.3-1.5,1.5l0,0.3l3,0.2l0.1-1
			c0.1-0.8-0.5-2.6-2.4-2.8l0,0l2.7,0.2L22.2,159.5z"/>
		<path class="st3" d="M19.7,145.3c0.5-0.4,1.1-0.7,0.9-1.6l0,0l0.7,2.7l-2,1.4c-0.7,0.5-0.7,0.6-0.5,1.4l2.1-0.6
			c0.1,0,0.9-0.3,0.7-1.2l0,0l1,3.6l0,0c-0.2-0.9-1.2-0.7-1.2-0.6l-4.1,1.1c-0.1,0-1,0.3-0.7,1.2l0,0l-1.3-5
			c-0.2-0.6,0.1-1.6,1.1-1.9c1-0.3,1.7,0.4,1.9,1.1l0.2,0.7c-0.1-0.6-0.1-1.5,0.5-1.9L19.7,145.3z M18.6,148.7
			c-0.2-0.8-0.7-1.1-1.8-0.8c-1,0.3-1.3,0.8-1.1,1.6l0.2,0.7l2.9-0.8L18.6,148.7z"/>
		<path class="st3" d="M12.9,135.3c0,0,0.8-0.7,0.2-1.5l0,0l2.5,3.2l0,0c-0.6-0.8-1.4-0.2-1.5-0.1l-3.6,2.8
			c-0.1,0.1-0.8,0.7-0.2,1.5l0,0L7.8,138l0,0c0.6,0.8,1.4,0.2,1.5,0.1L12.9,135.3z"/>
		<path class="st3" d="M11.7,131.3l-0.4-0.9c-0.3-0.6-2.1-2.1-4.2-1.1l0,0l3.1-1.5l3,6.2l0,0c-0.4-0.9-1.3-0.5-1.4-0.5l-4.2,2
			c-0.1,0-0.9,0.5-0.5,1.4l0,0l-1.8-3.6l0,0c0.4,0.9,1.3,0.5,1.4,0.4L11.7,131.3z"/>
		<path class="st3" d="M9.4,124.7l-0.2-1c-0.1-0.6-1.4-2.6-3.7-2.2l0,0l3.3-0.6l1.1,6.8l0,0c-0.2-1-1.1-0.8-1.2-0.8l-4.6,0.8
			c-0.1,0-1,0.2-0.9,1.2l0,0l-0.7-4l0,0c0.2,1,1.1,0.8,1.2,0.8L9.4,124.7z"/>
		<path class="st3" d="M4.5,113.3c-0.4,0-1.7,0.1-1.9,1.5l0,0l0.4-3.4l0,0C2.9,112.8,4.1,113.1,4.5,113.3l3,0.3
			c1.6,0.2,2,1.5,1.8,3.1c-0.2,1.5-0.9,3.2-2.9,2.9l-3.3-0.4c-0.1,0-1.1-0.1-1.2,0.9l0,0l0.5-4l0,0c-0.1,1,0.8,1.1,0.9,1.1l3.5,0.4
			c1.5,0.2,2.2-0.5,2.3-1.7c0.1-0.8-0.1-2.1-1.7-2.3L4.5,113.3z"/>
		<path class="st3" d="M5.5,105.2L5.5,105.2c0,0,1.2,0.3,0.9,1c-0.4,0.9-1.5,0.7-1.9,1.5c-0.1,0.3-0.1,0.8,0.6,1.1
			c0.5,0.2,0.9,0,1.5-0.6l0.9-0.8c0.8-0.7,1.5-1.2,2.4-0.8c1.8,0.7,1.6,2.7,1.1,3.8c-0.4,1-1.2,2.3-1.2,2.3l-2.3-1l0,0
			c1.7,0.7,2.9-0.2,3.4-1.2c0.3-0.7,0.2-1.5-0.6-1.8c-0.6-0.2-1,0-1.5,0.4l-0.9,0.8c-0.8,0.7-1.6,1.3-2.5,0.9
			c-0.6-0.3-1.8-1.1-0.8-3.4C4.9,106.4,5.8,105.4,5.5,105.2z"/>
		<path class="st3" d="M6.8,102.9l4.5-5.8l2.3,1.8l0,0c-1.3-1-3-0.7-3.8,0.4l4.5,3.4c0,0,0.9,0.6,1.5-0.1l0,0l-2.5,3.2l0,0
			c0.6-0.8-0.1-1.4-0.2-1.4l-4.5-3.5c-0.8,1.1-0.7,2.8,0.6,3.8l0,0L6.8,102.9z"/>
		<path class="st3" d="M21.7,95.9c0.6,0.4,1.1,0.9,1.9,0.4l0,0L21.2,98L19,96.5c-0.7-0.5-0.9-0.5-1.6,0l1.3,1.9
			c0.1,0.1,0.6,0.9,1.4,0.3l0,0l-3.3,2.3l0,0c0.8-0.6,0.3-1.4,0.2-1.5l-2.6-3.8c0,0-0.6-0.9-1.4-0.3l0,0l4.6-3.1
			c0.6-0.4,1.7-0.5,2.3,0.5c0.7,1,0.2,1.9-0.4,2.3l-0.6,0.4c0.6-0.3,1.4-0.6,2.1-0.1L21.7,95.9z M17.9,96c0.8-0.5,0.9-1.1,0.2-2.1
			c-0.7-1-1.3-1.1-2-0.6l-0.6,0.4l1.8,2.7L17.9,96z"/>
		<path class="st3" d="M23.4,96.4L23.4,96.4c0.8-0.3,1.3-1.2,1.4-2.2l0.3-4.4c-0.3-0.4-0.9-0.6-1.5-0.5l0,0l3.1-0.8l3.5,5
			c0.4,0.6,1,0.8,1.6,0.6l0,0l-4,1.1l0,0c0.9-0.2,0.6-0.8,0.3-1.2l-0.5-0.8L24.9,94l0,0.2c-0.1,1.1,0.3,1.8,1.5,1.4l0,0L23.4,96.4z
			 M24.9,93.9l2.6-0.7L25.3,90l-0.1-0.1L24.9,93.9z"/>
		<path class="st3" d="M29.7,88.2l7.2-1.4l0.6,2.8l0,0c-0.3-1.6-1.8-2.5-3.2-2.2l1.1,5.5c0,0.1,0.2,1,1.2,0.8l0,0l-4,0.8l0,0
			c0.9-0.2,0.8-1.1,0.8-1.2l-1.1-5.5C31,88,29.9,89.5,30.2,91l0,0L29.7,88.2z"/>
		<path class="st3" d="M44.6,85.8c1.1,1.7,0.6,3.9-1.1,4.9c-1.7,1.1-3.9,0.6-4.9-1.1s-0.6-3.9,1.1-4.9S43.5,84.1,44.6,85.8z
			 M44.6,89c0.5-0.3,0.6-0.9,0.3-1.3c-0.9-1.4-4.8-2.2-6.2-1.3c-0.5,0.3-0.6,0.9-0.3,1.3C39.2,89.1,43.2,90,44.6,89z"/>
		<path class="st3" d="M50.9,80.8c0.7,0.2,1.4,0.4,1.9-0.3l0,0l-1.8,2.5l-2.6-0.7c-0.8-0.2-1-0.1-1.5,0.6l1.9,1.3
			c0.1,0.1,0.9,0.6,1.5-0.2l0,0L48,87.3l0,0c0.6-0.8-0.2-1.4-0.3-1.4L44,83.1c0,0-0.9-0.6-1.5,0.2l0,0l3.2-4.5
			c0.4-0.6,1.4-1,2.3-0.4c0.9,0.7,0.8,1.7,0.4,2.3L48,81.4c0.5-0.5,1.1-1.1,1.9-0.9L50.9,80.8z M47.4,82.1c0.5-0.7,0.4-1.4-0.5-2
			c-0.9-0.7-1.6-0.6-2.1,0.2l-0.4,0.6l2.6,1.9L47.4,82.1z"/>
	</g>
</g>
<line class="st1" x1="145" y1="240.6" x2="63.7" y2="240.6"/>
<circle class="st4" cx="54.1" cy="73.9" r="1.3"/>
<circle class="st4" cx="138.5" cy="130.3" r="1.3"/>
<circle class="st4" cx="14.6" cy="141.7" r="1.3"/>
<circle class="st4" cx="95.4" cy="196.6" r="1.3"/>
<line class="st1" x1="144.3" y1="6.4" x2="0.3" y2="6.4"/>
<line class="st1" x1="138.8" y1="0.1" x2="138.6" y2="252.1"/>
<path class="st5" d="M129.2,28.2c-2.6,2.3-5.7,4.2-8.2,6.6c-2.3,2.3-4.2,5-5.8,7.9c-2.1,3.7-4,8-3.3,12.2c0.8,4.2,5.3,7.9,9.3,6.4
	c3-1.2,4.4-4.7,7.1-6.7c2.5-1.8,6-1.9,8.6-0.3c0.6,0.4,1.2,0.9,1.9,1c0.8,0.2,6.7,3,6.6,2.2c-0.3-8-0.2-9.1-0.2-13.1
	c0.1-5.4,0.1-10.7,0.2-16.1c0-2.6,0.1-5.3,0.1-7.9c0-1.5,1-7.1,0.1-8.2c-1.9-2.4-6.7,4.4-8.1,6.1c-1.4,1.8-2.7,3.6-4.2,5.3
	C132.8,24.4,129.2,27.4,129.2,28.2z"/>
<path class="st6" d="M52.7,3.6c-1.9,10.7-9.5,18.5-20.3,18.5S12.7,15,11.9,4.1c-0.1-1.5-0.6-4.3,0.5-4.3c3.2,0,11.7,0.3,19.4,0.1
	C39.6-0.3,48.1,0.2,52.4,0C53.5,0,53,2.2,52.7,3.6z"/>
<circle class="st7" cx="17.1" cy="21.2" r="14.8"/>
<path class="st8" d="M134,247.6c1.7-2.5,3.5-5,5.3-7.5c0,0,0,0,0,0c0.3-0.4,0.6-0.8,0.9-1.2"/>
<path class="st9" d="M19.4,251.2L19.4,251.2c-2.1-1.8-4.9-2.5-7.5-1.8l0,0c-6.7,1.7-12.4-4.9-9.8-11.3l0,0c1.1-2.5,0.8-5.4-0.7-7.7
	l0,0c-3.7-5.8,0.9-13.4,7.7-12.8h0c2.7,0.2,5.4-0.9,7.1-3l0,0c4.4-5.3,13-3.3,14.5,3.4l0,0c0.6,2.7,2.5,4.9,5.1,5.9l0,0
	c6.4,2.5,7.2,11.3,1.3,14.9l0,0c-2.3,1.4-3.8,3.9-4,6.6v0C32.7,252.3,24.6,255.8,19.4,251.2z"/>
<path class="st9" d="M26.7,244.2L26.7,244.2c-2.1-1.8-4.9-2.5-7.5-1.8l0,0c-6.7,1.7-12.4-4.9-9.8-11.3l0,0c1.1-2.5,0.8-5.4-0.7-7.7
	l0,0c-3.7-5.8,0.9-13.4,7.7-12.8h0c2.7,0.2,5.4-0.9,7.1-3l0,0c4.4-5.3,13-3.3,14.5,3.4l0,0c0.6,2.7,2.5,4.9,5.1,5.9l0,0
	c6.4,2.5,7.2,11.3,1.3,14.9l0,0c-2.3,1.4-3.8,3.9-4,6.6v0C40.1,245.3,32,248.7,26.7,244.2z"/>
<path class="st10" d="M12.9,3.3c-2.1,2.3-4.2,4.5-6.4,6.6c0,0,0,0,0,0c-0.3,0.3-0.7,0.7-1,1"/>
<circle class="st6" cx="19.7" cy="232.9" r="5.3"/>
<path class="st11" d="M0,69.5c1.6-3.8,4.4-7.2,8-9.3c7.6-4.5,17.1-3.3,25.9-4c14.6-1.1,28.8-7.8,38.8-18.6c3.8-4,7.1-9.1,6.6-14.6
	c-0.4-4.2-3-7.8-4.5-11.8s-1.6-9.2,1.9-11.6"/>
<path class="st12" d="M16.7,77.5c3-0.7,6-1.4,9-2c0,0,0,0,0.1,0c0.5-0.1,0.9-0.2,1.4-0.3"/>
<circle class="st13" cx="73.7" cy="136.3" r="5.3"/>
<path class="st14" d="M105.5,10.4c-0.6,3-1.2,6-1.9,9c0,0,0,0,0,0.1c-0.1,0.5-0.2,0.9-0.3,1.4"/>
<path class="st15" d="M104.3,251.9c-3.6,0.1-6.9,1.3-10.6,0c-4.3-1.5-13,4.2-13.8-6.2c-0.7-10.4,3.9-22,12.1-30.5
	c2.4-2.5,5.2-4.7,8.3-6.1c6.4-2.8,13.2-1.6,19.7-3.7c5.8-1.9,11.1-6.3,17-6.8c4.4-0.4,5.3-0.2,8.5,2.1c2.6,1.9,0.5,5.8,0,10.8
	c-0.4,3.6,1.6,25.5,0.5,29.9c-0.9,3.8,1.9,11.8-2.3,11.8c-10.4,0-25.4-1-28.5-1.4C112.1,251.5,107,251.8,104.3,251.9z"/>
<path class="st16" d="M147.8,202c-1.1,2.8-3,5.2-5.4,6.8c-5.1,3.3-11.6,2.4-17.5,2.9c-9.9,0.8-19.5,5.7-26.2,13.6
	c-2.5,2.9-4.8,6.7-4.5,10.7c0.3,3.1,2,5.7,3.1,8.6s1.1,6.7-1.3,8.5"/>
</svg>
