<?xml version="1.0" encoding="utf-8"?>
<!-- Generator: Adobe Illustrator 25.4.1, SVG Export Plug-In . SVG Version: 6.00 Build 0)  -->
<svg version="1.1" id="Layer_1" xmlns="http://www.w3.org/2000/svg" xmlns:xlink="http://www.w3.org/1999/xlink" x="0px" y="0px"
	 viewBox="0 0 144 252" style="enable-background:new 0 0 144 252;" xml:space="preserve">
<style type="text/css">
	.st0{fill:#F5E8DA;stroke:#F4E8DA;stroke-miterlimit:10;}
	.st1{opacity:0.1;fill:none;stroke:#EE4323;stroke-width:0.75;stroke-miterlimit:10;}
	.st2{fill:#EAD453;}
	.st3{fill:none;}
	.st4{fill:#5D62AB;}
	.st5{opacity:0.73;fill:#EAD453;}
	.st6{fill:#B1BDE0;}
	.st7{opacity:0.59;fill:#B1BDE0;}
	.st8{fill:none;stroke:#F16225;stroke-width:3;stroke-linecap:round;stroke-miterlimit:10;}
	.st9{opacity:0.43;fill:#F16225;}
	.st10{fill:none;stroke:#F16225;stroke-linecap:round;stroke-miterlimit:10;}
	.st11{fill:none;stroke:#5D62AB;stroke-width:3;stroke-linecap:round;stroke-miterlimit:10;}
	.st12{fill:#F6BD89;}
	.st13{opacity:0.62;fill:none;stroke:#EFAECE;stroke-width:3;stroke-linecap:round;stroke-miterlimit:10;}
</style>
<rect x="-0.4" class="st0" width="144" height="252"/>
<line class="st1" x1="143.6" y1="248.8" x2="-0.4" y2="248.8"/>
<path class="st2" d="M143.8,70.8c-5.3,1.9-9.9-1.9-15.1,0.3c-3.5,1.5-5.5,5.3-8.9,7.1c-4.4,2.4-10.3,1-14-2.3s-5.6-8-6.8-12.8
	c-1.5-5.9-2-12.6,1.5-17.7c1.5-2.2,3.6-4,5.2-6.1c3.3-4.1,4.9-9.2,7.8-13.6C120.8,15,134.5,10,144.2,1.1c-0.5,1.2-0.3,3.6,0.3,4.7
	c-10.8,8-20.6,17.1-29.2,27.3c-7.5,8.9-14.4,20.2-11.2,31.2c0.9,3.1,2.8,6.2,5.7,7.9c2.9,1.7,7,1.8,9.5-0.4c2.4-2,3.2-5.6,6-7.1
	c5.5-2.9,13.7,4.2,18.4,0.2C144.1,66.7,143.5,68.9,143.8,70.8z"/>
<g>
	<path id="SVGID_x5F_1_x5F_" class="st3" d="M79.9,190.7L79.9,190.7c-7.2-4.3-16-4.7-23.6-1.2l0,0c-19.1,8.8-40-8.1-35.4-28.6l0,0
		c1.8-8.1-0.5-16.7-6.1-22.8l0,0c-14.3-15.4-4.7-40.5,16.3-42.5h0c8.3-0.8,15.7-5.6,19.8-12.9l0,0c10.3-18.3,37.1-17,45.4,2.3l0,0
		c3.3,7.7,10.2,13.2,18.4,14.8l0,0c20.6,4.1,27.6,30.1,11.8,43.9l0,0c-6.3,5.5-9.4,13.8-8.4,22l0,0
		C120.5,186.8,97.9,201.4,79.9,190.7z"/>
	<text>	<textPath  xlink:href="#SVGID_x5F_1_x5F_" startOffset="58.8816%">
<tspan  style="fill:#EFAECE; font-family:'Patheos-Regular'; font-size:9px;">GRAPHIC DESIGNER  ILLUSTrATOR GRAPHIC DESIGNER  </tspan><tspan  style="fill:#EFAECE; font-family:'Patheos-Regular'; font-size:9.7104px;">ILLUSTrATOR   </tspan>	</textPath>
</text>
</g>
<line class="st1" x1="144" y1="241.7" x2="62.7" y2="241.7"/>
<circle class="st4" cx="53" cy="75" r="1.3"/>
<circle class="st4" cx="137.5" cy="131.4" r="1.3"/>
<circle class="st4" cx="13.6" cy="142.8" r="1.3"/>
<circle class="st4" cx="94.3" cy="197.6" r="1.3"/>
<line class="st1" x1="137.8" y1="1.2" x2="137.6" y2="253.2"/>
<path class="st5" d="M128.2,29.3c-2.6,2.3-5.7,4.2-8.2,6.6c-2.3,2.3-4.2,5-5.8,7.9c-2.1,3.7-4,8-3.3,12.2s5.3,7.9,9.3,6.4
	c3-1.2,4.4-4.7,7.1-6.7c2.5-1.8,6-1.9,8.6-0.3c0.6,0.4,1.2,0.9,1.9,1c0.8,0.2,6.7,3,6.6,2.2c-0.3-8-0.2-9.1-0.2-13.1
	c0.1-5.4,0.1-10.7,0.2-16.1c0-2.6,0.1-5.3,0.1-7.9c0-1.5,1-7.1,0.1-8.2c-1.9-2.4-6.7,4.4-8.1,6.1c-1.4,1.8-2.7,3.6-4.2,5.3
	C131.7,25.5,128.2,28.5,128.2,29.3z"/>
<path class="st6" d="M51.7,4.7c-1.9,10.7-9.5,18.5-20.3,18.5S11.7,16,10.9,5.2c-0.1-1.5-0.6-4.3,0.5-4.3c3.2,0,11.7,0.3,19.4,0.1
	c7.8-0.2,16.3,0.3,20.6,0.1C52.4,1.1,51.9,3.3,51.7,4.7z"/>
<circle class="st7" cx="16.1" cy="22.3" r="14.8"/>
<path class="st8" d="M133,248.7c1.7-2.5,3.5-5,5.3-7.5c0,0,0,0,0,0c0.3-0.4,0.6-0.8,0.9-1.2"/>
<path class="st9" d="M18.4,252.3L18.4,252.3c-2.1-1.8-4.9-2.5-7.5-1.8h0c-6.7,1.7-12.4-4.9-9.8-11.3l0,0c1.1-2.5,0.8-5.4-0.7-7.7
	l0,0c-3.7-5.8,0.9-13.4,7.7-12.8h0c2.7,0.2,5.4-0.9,7.1-3l0,0c4.4-5.3,13-3.3,14.5,3.4l0,0c0.6,2.7,2.5,4.9,5.1,5.9h0
	c6.4,2.5,7.2,11.3,1.3,14.9h0c-2.3,1.4-3.8,3.9-4,6.6l0,0C31.7,253.4,23.6,256.8,18.4,252.3z"/>
<path class="st9" d="M25.7,245.3L25.7,245.3c-2.1-1.8-4.9-2.5-7.5-1.8h0c-6.7,1.7-12.4-4.9-9.8-11.3l0,0c1.1-2.5,0.8-5.4-0.7-7.7
	l0,0c-3.7-5.8,0.9-13.4,7.7-12.8h0c2.7,0.2,5.4-0.9,7.1-3l0,0c4.4-5.3,13-3.3,14.5,3.4l0,0c0.6,2.7,2.5,4.9,5.1,5.9l0,0
	c6.4,2.5,7.2,11.3,1.3,14.9h0c-2.3,1.4-3.8,3.9-4,6.6l0,0C39.1,246.4,30.9,249.8,25.7,245.3z"/>
<circle class="st6" cx="18.7" cy="233.9" r="5.3"/>
<path class="st10" d="M-1,70.6c1.6-3.8,4.4-7.2,8-9.3c7.6-4.5,17.1-3.3,25.9-4c14.6-1.1,28.8-7.8,38.8-18.6c3.8-4,7.1-9.1,6.6-14.6
	c-0.4-4.2-3-7.8-4.5-11.8c-1.5-3.9-1.6-9.2,1.9-11.6"/>
<path class="st11" d="M15.7,78.5c3-0.7,6-1.4,9-2c0,0,0,0,0.1,0c0.5-0.1,0.9-0.2,1.4-0.3"/>
<circle class="st12" cx="72.7" cy="137.3" r="5.3"/>
<path class="st13" d="M104.5,11.4c-0.6,3-1.2,6-1.9,9c0,0,0,0,0,0.1c-0.1,0.5-0.2,0.9-0.3,1.4"/>
</svg>
