<?xml version="1.0" encoding="utf-8"?>
<!-- Generator: Adobe Illustrator 25.4.1, SVG Export Plug-In . SVG Version: 6.00 Build 0)  -->
<svg version="1.1" id="Layer_1" xmlns="http://www.w3.org/2000/svg" xmlns:xlink="http://www.w3.org/1999/xlink" x="0px" y="0px"
	 viewBox="0 0 491.8 492.8" style="enable-background:new 0 0 491.8 492.8;" xml:space="preserve">

<g>
	<path class="st0" d="M246.4,0C110.4,0,0,110.4,0,246.4c0,136,110.4,246.4,246.4,246.4c135.9,0,246.4-110.4,246.4-246.4
		C492.8,110.4,382.3,0,246.4,0L246.4,0z M257.6,26.2c7.3,2.2,14.6,6.7,22,13.6c11.1,10.4,21.7,26.3,30.8,46.4
		c3.1,6.8,6,14.2,8.6,21.9h-61.4L257.6,26.2z M235.2,26.2v81.9h-61.4c2.7-7.7,5.6-15.1,8.6-21.9c9.1-20.1,19.7-36,30.8-46.4
		C220.6,32.9,227.9,28.4,235.2,26.2L235.2,26.2z M192.5,28.9C180.8,41.5,170.6,57.8,162,77c-4.3,9.7-8.3,20.1-11.9,31.1H70.1
		C100.4,69.4,143.2,41,192.5,28.9L192.5,28.9z M300.3,28.9c49.2,12.1,92.1,40.5,122.4,79.2h-80.1c-3.5-11-7.5-21.4-11.8-31.1
		C322.1,57.8,312,41.5,300.3,28.9L300.3,28.9z M54.6,130.5h89.2c-7.9,31.4-12.6,66.9-13.4,104.7H22.7C24.6,197,36,161.3,54.6,130.5
		L54.6,130.5z M167,130.5h68.2v104.7h-82.4C153.7,196.9,158.8,161.2,167,130.5L167,130.5z M257.6,130.5h68.2
		c8.2,30.7,13.3,66.4,14.1,104.7h-82.4V130.5z M349,130.5h89.2c18.6,30.8,30.1,66.5,31.9,104.7H362.3
		C361.6,197.4,356.9,161.9,349,130.5L349,130.5z M22.7,257.6h107.7c0.8,37.2,5.4,72.2,13,103.3H53.7
		C35.6,330.4,24.5,295.2,22.7,257.6L22.7,257.6z M152.8,257.6h82.4v103.3h-68.6C158.6,330.5,153.6,295.2,152.8,257.6L152.8,257.6z
		 M257.6,257.6h82.4c-0.8,37.7-5.8,72.9-13.8,103.3h-68.6L257.6,257.6z M362.3,257.6h107.8c-1.8,37.6-13,72.8-31.1,103.3H439h-89.6
		C357,329.8,361.6,294.8,362.3,257.6L362.3,257.6z M69,383.3h80.7c3.7,11.6,7.8,22.5,12.3,32.5c8.6,19.2,18.8,35.5,30.5,48.1
		C142.6,451.6,99.4,422.7,69,383.3L69,383.3z M173.3,383.3h61.9v83.3c-7.3-2.2-14.6-6.7-21.9-13.6c-11.1-10.4-21.7-26.3-30.8-46.4
		C179.2,399.4,176.1,391.6,173.3,383.3L173.3,383.3z M257.6,383.3h61.9c-2.8,8.3-5.9,16.1-9.1,23.4c-9.1,20.1-19.7,36-30.8,46.4
		c-7.3,6.9-14.6,11.4-22,13.6L257.6,383.3z M343.1,383.3h80.8c-30.4,39.4-73.7,68.3-123.5,80.6c11.7-12.6,21.9-28.9,30.5-48.1
		C335.3,405.7,339.4,394.8,343.1,383.3L343.1,383.3z"/>
</g>
</svg>
