<?xml version="1.0" encoding="utf-8"?>
<!-- Generator: Adobe Illustrator 25.4.1, SVG Export Plug-In . SVG Version: 6.00 Build 0)  -->
<svg version="1.1" id="Layer_1" xmlns="http://www.w3.org/2000/svg" xmlns:xlink="http://www.w3.org/1999/xlink" x="0px" y="0px"
	 viewBox="0 0 144 252" style="enable-background:new 0 0 144 252;" xml:space="preserve">
<style type="text/css">
	.st0{fill:#F5E8DA;stroke:#F4E8DA;stroke-miterlimit:10;}
	.st1{fill:#F16225;}
	.st2{opacity:0.1;fill:none;stroke:#EE4323;stroke-width:0.75;stroke-miterlimit:10;}
	.st3{fill:#5D62AB;}
	.st4{opacity:0.62;fill:#EFAECE;}
	.st5{opacity:0.39;fill:#EAD453;}
	.st6{opacity:0.62;fill:none;stroke:#EFAECE;stroke-miterlimit:10;}
	.st7{opacity:0.39;fill:#EAD453;stroke:#E7C933;stroke-miterlimit:10;}
	.st8{fill:#B1BDE0;}
	.st9{opacity:0.62;fill:none;stroke:#EFAECE;stroke-width:3;stroke-linecap:round;stroke-miterlimit:10;}
	.st10{opacity:0.39;fill:none;stroke:#EAD453;stroke-width:2;stroke-linecap:round;stroke-miterlimit:10;}
	.st11{fill:none;stroke:#F16225;stroke-width:3;stroke-linecap:round;stroke-miterlimit:10;}
	.st12{opacity:0.59;fill:#B1BDE0;}
	.st13{fill:none;stroke:#5D62AB;stroke-miterlimit:10;}
	.st14{fill:none;stroke:#F16225;stroke-miterlimit:10;}
</style>
<rect x="0.3" y="0.6" class="st0" width="144" height="252"/>
<path class="st1" d="M144.3,131.4c-5.2,1.9-11.3-1.5-16.3,0.7c-3.5,1.5-5.4,5.2-8.7,7.1c-4.3,2.4-10,1-13.6-2.3
	c-3.6-3.3-5.5-8-6.7-12.7c-1.5-5.9-1.9-12.5,1.4-17.7c1.4-2.2,3.5-4,5.1-6c3.2-4.1,4-9.8,7.6-13.6c9.4-9.8,21.8-16.9,31.2-25.8
	c0,0.8,0,4.2-0.1,5.8c-10.5,7.9-21.1,17.1-29.5,27.2c-7.3,8.8-14.1,20.1-10.9,31.1c0.9,3.1,2.7,6.2,5.5,7.8s6.8,1.8,9.3-0.4
	c2.4-2,3.1-5.6,5.9-7.1c5.4-2.9,15,5,19.6,1.1C144.6,128.5,144,129.5,144.3,131.4z"/>
<path class="st1" d="M144.4,153.4c-8.2,2.9-15.4-2.9-23.4,0.5c-5.5,2.4-8.6,8.2-13.8,11.1c-6.8,3.8-15.9,1.6-21.7-3.5
	s-8.8-12.5-10.6-19.8c-2.3-9.2-3-19.6,2.3-27.5c2.3-3.4,5.5-6.2,8.1-9.4c5.2-6.4,7.7-14.3,12.2-21.2C108.6,66.6,130,58.9,144.9,45
	c-0.8,1.8-0.4,5.5,0.5,7.3c-16.8,12.4-32,26.6-45.3,42.3c-11.7,13.8-22.4,31.3-17.3,48.4c1.4,4.9,4.3,9.6,8.8,12.2
	c4.5,2.6,10.8,2.8,14.8-0.6c3.8-3.2,5-8.7,9.4-11c8.6-4.5,21.3,6.6,28.6,0.4C144.8,147,143.9,150.4,144.4,153.4z"/>
<line class="st2" x1="6.6" y1="0.6" x2="6.5" y2="252.6"/>
<line class="st2" x1="12.5" y1="0.6" x2="12.3" y2="252.6"/>
<circle class="st3" cx="128.7" cy="214.2" r="5.3"/>
<path class="st4" d="M2.7,234c2.1-6.2,6-12,6-18.6c0-5.7-2.9-10.9-5-16.2c-5.8-15.1-4.3-32.8,4-46.6C16,138.7,30.9,129,46.9,127
	c4.7-0.6,9.5-0.5,13.9,1c9.1,3.1,15.1,11.9,23.7,16.1c7.6,3.7,17.1,3.8,23.6,9.3c4.9,4.1,7.1,10.6,8.4,16.9
	c1.1,5.1,1.6,10.5,0.8,15.6c-1,5.8-3.7,11.1-5.7,16.6c-2,5.5-3.2,11.7-1.1,17.2c2.4,6.2,8.3,10.1,12.6,15.1
	c4.3,5,10.1,10.8,5.2,15.2c-4.3,3.8-13.9,1.5-19.7,1.5c-18.3,0.1-32.8-0.7-49.3,0c-12.9,0.5-26.7,0.5-44.4,0.5
	c-4.1,0-10,1.5-12.8-2.3C-0.7,245.9,1.4,238.1,2.7,234z"/>
<path class="st5" d="M118,47.3L118,47.3c-2.5-2.2-5.9-3-9.1-2.1l0,0c-8.1,2.1-15.1-6-11.8-13.7l0,0c1.3-3.1,1-6.6-0.8-9.3l0,0
	c-4.5-7,1-16.2,9.4-15.5l0,0c3.3,0.3,6.5-1.1,8.6-3.6l0,0c5.3-6.5,15.7-4,17.6,4.1v0c0.8,3.2,3,5.9,6.1,7.1l0,0
	c7.8,3.1,8.7,13.7,1.5,18l0,0c-2.8,1.7-4.7,4.7-4.9,8v0C134.1,48.7,124.3,52.8,118,47.3z"/>
<path class="st6" d="M13.5,234c2.1-6.2,6-12,6-18.6c0-5.7-2.9-10.9-5-16.2c-5.8-15.1-4.3-32.8,4-46.6c8.3-13.9,23.2-23.6,39.2-25.6
	c4.7-0.6,9.5-0.5,13.9,1c9.1,3.1,15.1,11.9,23.7,16.1c7.6,3.7,17.1,3.8,23.6,9.3c4.9,4.1,7.1,10.6,8.4,16.9
	c1.1,5.1,1.6,10.5,0.8,15.6c-1,5.8-3.7,11.1-5.7,16.6c-2,5.5-3.2,11.7-1.1,17.2c2.4,6.2,8.3,10.1,12.6,15.1
	c4.3,5,10.1,10.8,5.2,15.2c-4.3,3.8-13.9,1.5-19.7,1.5c-18.3,0.1-32.8-0.7-49.3,0c-12.9,0.5-26.7,0.5-44.4,0.5
	c-4.1,0-10,1.5-12.8-2.3C10.1,245.9,12.2,238.1,13.5,234z"/>
<path class="st7" d="M110.1,57.5L110.1,57.5c-2.5-2.2-5.9-3-9.1-2.1l0,0c-8.1,2.1-15.1-6-11.8-13.7l0,0c1.3-3.1,1-6.6-0.8-9.3l0,0
	c-4.5-7,1-16.2,9.4-15.5l0,0c3.3,0.3,6.5-1.1,8.6-3.6l0,0c5.3-6.5,15.7-4,17.6,4.1l0,0c0.8,3.2,3,5.9,6.1,7.1l0,0
	c7.8,3.1,8.7,13.7,1.5,18l0,0c-2.8,1.7-4.7,4.7-4.9,8l0,0C126.3,58.9,116.4,63,110.1,57.5z"/>
<circle class="st8" cx="37.6" cy="34.8" r="34.6"/>
<path class="st9" d="M83.5,2.1c-2.1,2.3-4.2,4.5-6.4,6.6c0,0,0,0,0,0c-0.3,0.3-0.7,0.7-1,1"/>
<path class="st10" d="M131.4,188.5c2.8,1.2,5.6,2.5,8.3,3.9c0,0,0,0,0,0c0.4,0.2,0.9,0.4,1.3,0.7"/>
<path class="st11" d="M10,235.9c0.7,3,1.3,6,1.9,9c0,0,0,0,0,0.1c0.1,0.5,0.2,1,0.2,1.4"/>
<path class="st12" d="M-0.4,49V0.2h40.5c0,0,0,9.6-5.3,25.3C28.7,43.7-0.4,49-0.4,49z"/>
<circle class="st13" cx="16.6" cy="72.5" r="23.5"/>
<circle class="st14" cx="115.5" cy="223.6" r="28.8"/>
<circle class="st4" cx="111" cy="34.8" r="5.3"/>
</svg>
